<svg aria-hidden="true" style="position: absolute; width: 0; height: 0; overflow: hidden;" version="1.1" xmlns="http://www.w3.org/2000/svg" xmlns:xlink="http://www.w3.org/1999/xlink">
<defs>
<symbol id="icon-backward" viewBox="0 0 28 28">
<path d="M25.297 2.203c0.391-0.391 0.703-0.25 0.703 0.297v23c0 0.547-0.313 0.688-0.703 0.297l-11.094-11.094c-0.094-0.094-0.156-0.187-0.203-0.297v11.094c0 0.547-0.313 0.688-0.703 0.297l-11.094-11.094c-0.391-0.391-0.391-1.016 0-1.406l11.094-11.094c0.391-0.391 0.703-0.25 0.703 0.297v11.094c0.047-0.109 0.109-0.203 0.203-0.297z"></path>
</symbol>
<symbol id="icon-play" viewBox="0 0 22 28">
<path d="M21.625 14.484l-20.75 11.531c-0.484 0.266-0.875 0.031-0.875-0.516v-23c0-0.547 0.391-0.781 0.875-0.516l20.75 11.531c0.484 0.266 0.484 0.703 0 0.969z"></path>
</symbol>
<symbol id="icon-pause" viewBox="0 0 24 28">
<path d="M24 3v22c0 0.547-0.453 1-1 1h-8c-0.547 0-1-0.453-1-1v-22c0-0.547 0.453-1 1-1h8c0.547 0 1 0.453 1 1zM10 3v22c0 0.547-0.453 1-1 1h-8c-0.547 0-1-0.453-1-1v-22c0-0.547 0.453-1 1-1h8c0.547 0 1 0.453 1 1z"></path>
</symbol>
<symbol id="icon-forward" viewBox="0 0 24 28">
<path d="M0.703 25.797c-0.391 0.391-0.703 0.25-0.703-0.297v-23c0-0.547 0.313-0.688 0.703-0.297l11.094 11.094c0.094 0.094 0.156 0.187 0.203 0.297v-11.094c0-0.547 0.313-0.688 0.703-0.297l11.094 11.094c0.391 0.391 0.391 1.016 0 1.406l-11.094 11.094c-0.391 0.391-0.703 0.25-0.703-0.297v-11.094c-0.047 0.109-0.109 0.203-0.203 0.297z"></path>
</symbol>
</defs>
</svg>
